<svg width="0" height="0" class="hidden">
  <symbol xmlns:xlink="http://www.w3.org/1999/xlink" xmlns="http://www.w3.org/2000/svg" viewBox="0 0 24 24" id="plyr-volume">
    <path d="M2 10V14C2 16 3 17 5 17H6.43C6.8 17 7.17 17.11 7.49 17.3L10.41 19.13C12.93 20.71 15 19.56 15 16.59V7.41003C15 4.43003 12.93 3.29003 10.41 4.87003L7.49 6.70003C7.17 6.89003 6.8 7.00003 6.43 7.00003H5C3 7.00003 2 8.00003 2 10Z" stroke="#FFFDFC" fill="none"></path>
    <path d="M18 8C19.78 10.37 19.78 13.63 18 16" stroke="#FFFDFC" fill="none"></path>
    <path d="M19.83 5.5C22.72 9.35 22.72 14.65 19.83 18.5" stroke="#FFFDFC" fill="none"></path>
  </symbol>
  <symbol xmlns:xlink="http://www.w3.org/1999/xlink" xmlns="http://www.w3.org/2000/svg" viewBox="0 0 24 24" id="plyr-muted">
    <path d="M2 10.1595V14.1595C2 16.1595 3 17.1595 5 17.1595H6.43C6.8 17.1595 7.17 17.2695 7.49 17.4595L10.41 19.2895C12.93 20.8695 15 19.7195 15 16.7495V7.56946C15 4.58946 12.93 3.44946 10.41 5.02946L7.49 6.85946C7.17 7.04946 6.8 7.15946 6.43 7.15946H5C3 7.15946 2 8.15946 2 10.1595Z" stroke="#FFFDFC" fill="none"></path>
    <path d="M22 14.1194L18.04 10.1594" stroke-miterlimit="10" stroke="#FFFDFC" fill="none"></path>
    <path d="M21.96 10.1995L18 14.1595" stroke-miterlimit="10" stroke="#FFFDFC" fill="none"></path>
  </symbol>
  <symbol xmlns:xlink="http://www.w3.org/1999/xlink" xmlns="http://www.w3.org/2000/svg" viewBox="0 0 24 24" id="plyr-settings">
    <g transform="translate(3.500000, 2.500000)" stroke="#FFFDFC" fill="none" stroke-width="1.3px">
      <path d="M8.5,7 C9.88088012,7 11,8.11911988 11,9.5 C11,10.8808801 9.88088012,12 8.5,12 C7.11911988,12 6,10.8808801 6,9.5 C6,8.11911988 7.11911988,7 8.5,7 Z" stroke="#41B375" fill="none" stroke-width="1.3px"></path>
      <path d="M16.6680023,4.75024695 L16.6680023,4.75024695 C15.9844554,3.55799324 14.4712377,3.15003899 13.2885153,3.83852352 C12.2597626,4.43613205 10.9740669,3.68838056 10.9740669,2.49217572 C10.9740669,1.11619444 9.86587758,0 8.4997646,0 L8.4997646,0 C7.13365161,0 6.02546233,1.11619444 6.02546233,2.49217572 C6.02546233,3.68838056 4.73976662,4.43613205 3.71199461,3.83852352 C2.52829154,3.15003899 1.01507378,3.55799324 0.331526939,4.75024695 C-0.351039204,5.94250065 0.053989269,7.46664934 1.23769234,8.15414609 C2.26546435,8.7527424 2.26546435,10.2472576 1.23769234,10.8458539 C0.053989269,11.5343384 -0.351039204,13.0584871 0.331526939,14.2497531 C1.01507378,15.4420068 2.52829154,15.849961 3.71101391,15.1624643 L3.71199461,15.1624643 C4.73976662,14.5638679 6.02546233,15.3116194 6.02546233,16.5078243 L6.02546233,16.5078243 C6.02546233,17.8838056 7.13365161,19 8.4997646,19 L8.4997646,19 C9.86587758,19 10.9740669,17.8838056 10.9740669,16.5078243 L10.9740669,16.5078243 C10.9740669,15.3116194 12.2597626,14.5638679 13.2885153,15.1624643 C14.4712377,15.849961 15.9844554,15.4420068 16.6680023,14.2497531 C17.3515491,13.0584871 16.9455399,11.5343384 15.7628176,10.8458539 L15.7618369,10.8458539 C14.7340648,10.2472576 14.7340648,8.7527424 15.7628176,8.15414609 C16.9455399,7.46664934 17.3515491,5.94250065 16.6680023,4.75024695 Z" stroke="#FFFDFC" fill="none" stroke-width="1.3px"></path>
    </g>
  </symbol>
  <symbol xmlns="http://www.w3.org/2000/svg" viewBox="0 0 18 18" id="plyr-airplay">
    <g>
      <path d="M16,1 L2,1 C1.447,1 1,1.447 1,2 L1,12 C1,12.553 1.447,13 2,13 L5,13 L5,11 L3,11 L3,3 L15,3 L15,11 L13,11 L13,13 L16,13 C16.553,13 17,12.553 17,12 L17,2 C17,1.447 16.553,1 16,1 L16,1 Z"></path>
      <polygon points="4 17 14 17 9 11"></polygon>
    </g>
  </symbol>
  <symbol xmlns="http://www.w3.org/2000/svg" viewBox="0 0 18 18" id="plyr-captions-off">
    <g fill-rule="evenodd" fill-opacity="0.5">
      <path d="M1,1 C0.4,1 0,1.4 0,2 L0,13 C0,13.6 0.4,14 1,14 L5.6,14 L8.3,16.7 C8.5,16.9 8.7,17 9,17 C9.3,17 9.5,16.9 9.7,16.7 L12.4,14 L17,14 C17.6,14 18,13.6 18,13 L18,2 C18,1.4 17.6,1 17,1 L1,1 Z M5.52,11.15 C7.51,11.15 8.53,9.83 8.8,8.74 L7.51,8.35 C7.32,9.01 6.73,9.8 5.52,9.8 C4.38,9.8 3.32,8.97 3.32,7.46 C3.32,5.85 4.44,5.09 5.5,5.09 C6.73,5.09 7.28,5.84 7.45,6.52 L8.75,6.11 C8.47,4.96 7.46,3.76 5.5,3.76 C3.6,3.76 1.89,5.2 1.89,7.46 C1.89,9.72 3.54,11.15 5.52,11.15 Z M13.09,11.15 C15.08,11.15 16.1,9.83 16.37,8.74 L15.08,8.35 C14.89,9.01 14.3,9.8 13.09,9.8 C11.95,9.8 10.89,8.97 10.89,7.46 C10.89,5.85 12.01,5.09 13.07,5.09 C14.3,5.09 14.85,5.84 15.02,6.52 L16.32,6.11 C16.04,4.96 15.03,3.76 13.07,3.76 C11.17,3.76 9.46,5.2 9.46,7.46 C9.46,9.72 11.11,11.15 13.09,11.15 Z"></path>
    </g>
  </symbol>
  <symbol xmlns="http://www.w3.org/2000/svg" viewBox="0 0 18 18" id="plyr-captions-on">
    <g fill-rule="evenodd">
      <path d="M1,1 C0.4,1 0,1.4 0,2 L0,13 C0,13.6 0.4,14 1,14 L5.6,14 L8.3,16.7 C8.5,16.9 8.7,17 9,17 C9.3,17 9.5,16.9 9.7,16.7 L12.4,14 L17,14 C17.6,14 18,13.6 18,13 L18,2 C18,1.4 17.6,1 17,1 L1,1 Z M5.52,11.15 C7.51,11.15 8.53,9.83 8.8,8.74 L7.51,8.35 C7.32,9.01 6.73,9.8 5.52,9.8 C4.38,9.8 3.32,8.97 3.32,7.46 C3.32,5.85 4.44,5.09 5.5,5.09 C6.73,5.09 7.28,5.84 7.45,6.52 L8.75,6.11 C8.47,4.96 7.46,3.76 5.5,3.76 C3.6,3.76 1.89,5.2 1.89,7.46 C1.89,9.72 3.54,11.15 5.52,11.15 Z M13.09,11.15 C15.08,11.15 16.1,9.83 16.37,8.74 L15.08,8.35 C14.89,9.01 14.3,9.8 13.09,9.8 C11.95,9.8 10.89,8.97 10.89,7.46 C10.89,5.85 12.01,5.09 13.07,5.09 C14.3,5.09 14.85,5.84 15.02,6.52 L16.32,6.11 C16.04,4.96 15.03,3.76 13.07,3.76 C11.17,3.76 9.46,5.2 9.46,7.46 C9.46,9.72 11.11,11.15 13.09,11.15 Z"></path>
    </g>
  </symbol>
  <symbol xmlns="http://www.w3.org/2000/svg" viewBox="0 0 18 18" id="plyr-download">
    <g transform="translate(2 1)">
      <path d="M7,12 C7.3,12 7.5,11.9 7.7,11.7 L13.4,6 L12,4.6 L8,8.6 L8,0 L6,0 L6,8.6 L2,4.6 L0.6,6 L6.3,11.7 C6.5,11.9 6.7,12 7,12 Z"></path>
      <rect width="14" height="2" y="14"></rect>
    </g>
  </symbol>
  <symbol xmlns="http://www.w3.org/2000/svg" viewBox="0 0 18 18" id="plyr-enter-fullscreen">
    <polygon points="10 3 13.6 3 9.6 7 11 8.4 15 4.4 15 8 17 8 17 1 10 1"></polygon>
    <polygon points="7 9.6 3 13.6 3 10 1 10 1 17 8 17 8 15 4.4 15 8.4 11"></polygon>
  </symbol>
  <symbol xmlns="http://www.w3.org/2000/svg" viewBox="0 0 18 18" id="plyr-exit-fullscreen">
    <polygon points="1 12 4.6 12 0.6 16 2 17.4 6 13.4 6 17 8 17 8 10 1 10"></polygon>
    <polygon points="16 0.6 12 4.6 12 1 10 1 10 8 17 8 17 6 13.4 6 17.4 2"></polygon>
  </symbol>
  <symbol xmlns="http://www.w3.org/2000/svg" viewBox="0 0 18 18" id="plyr-fast-forward">
    <polygon points="7.875 7.17142857 0 1 0 17 7.875 10.8285714 7.875 17 18 9 7.875 1"></polygon>
  </symbol>
  <symbol xmlns="http://www.w3.org/2000/svg" viewBox="0 0 18 18" id="plyr-logo-vimeo">
    <path d="M16,3.3 C15.9,4.9 14.8,7 12.7,9.7 C10.5,12.5 8.7,13.9 7.2,13.9 C6.3,13.9 5.5,13 4.8,11.3 C4,8.9 3.4,4 2,4 C1.9,4 1.5,4.3 0.8,4.8 L0,3.8 C0.8,3.1 3.5,0.4 4.7,0.3 C5.9,0.2 6.7,1 7,2.8 C7.3,4.8 7.8,8.9 8.8,8.9 C9.7,8.9 11.3,5.5 11.4,4.9 C11.5,4 11.1,3 9.1,3.8 C9.9,1.2 11.4,-8.8817842e-16 13.6,-8.8817842e-16 C15.3,0.1 16.1,1.2 16,3.3 Z" transform="translate(1 2)"></path>
  </symbol>
  <symbol xmlns="http://www.w3.org/2000/svg" viewBox="0 0 18 18" id="plyr-logo-youtube">
    <path d="M15.8,2.8 C15.6,1.5 15,0.6 13.6,0.4 C11.4,0 8,0 8,0 C8,0 4.6,0 2.4,0.4 C1,0.6 0.3,1.5 0.2,2.8 C0,4.1 0,6 0,6 C0,6 0,7.9 0.2,9.2 C0.4,10.5 1,11.4 2.4,11.6 C4.6,12 8,12 8,12 C8,12 11.4,12 13.6,11.6 C15,11.3 15.6,10.5 15.8,9.2 C16,7.9 16,6 16,6 C16,6 16,4.1 15.8,2.8 Z M6,9 L6,3 L11,6 L6,9 Z" transform="translate(1 3)"></path>
  </symbol>
  <symbol xmlns="http://www.w3.org/2000/svg" viewBox="0 0 18 18" id="plyr-pause">
    <path d="M6,1 L3,1 C2.4,1 2,1.4 2,2 L2,16 C2,16.6 2.4,17 3,17 L6,17 C6.6,17 7,16.6 7,16 L7,2 C7,1.4 6.6,1 6,1 L6,1 Z"></path>
    <path d="M12,1 C11.4,1 11,1.4 11,2 L11,16 C11,16.6 11.4,17 12,17 L15,17 C15.6,17 16,16.6 16,16 L16,2 C16,1.4 15.6,1 15,1 L12,1 Z"></path>
  </symbol>
  <symbol xmlns="http://www.w3.org/2000/svg" viewBox="0 0 18 18" id="plyr-pip">
    <polygon points="13.293 3.293 7.022 9.564 8.436 10.978 14.707 4.707 17 7 17 1 11 1"></polygon>
    <path d="M13,15 L3,15 L3,5 L8,5 L8,3 L2,3 C1.448,3 1,3.448 1,4 L1,16 C1,16.552 1.448,17 2,17 L14,17 C14.552,17 15,16.552 15,16 L15,10 L13,10 L13,15 L13,15 Z"></path>
  </symbol>
  <symbol xmlns="http://www.w3.org/2000/svg" viewBox="0 0 18 18" id="plyr-play">
    <path d="M15.5615866,8.10002147 L3.87056367,0.225209313 C3.05219207,-0.33727727 2,0.225209313 2,1.12518784 L2,16.8748122 C2,17.7747907 3.05219207,18.3372773 3.87056367,17.7747907 L15.5615866,9.89997853 C16.1461378,9.44998927 16.1461378,8.55001073 15.5615866,8.10002147 L15.5615866,8.10002147 Z"></path>
  </symbol>
  <symbol xmlns="http://www.w3.org/2000/svg" viewBox="0 0 18 18" id="plyr-restart">
    <path d="M9.7,1.2 L10.4,7.6 L12.5,5.5 C14.4,7.4 14.4,10.6 12.5,12.5 C11.6,13.5 10.3,14 9,14 C7.7,14 6.4,13.5 5.5,12.5 C3.6,10.6 3.6,7.4 5.5,5.5 C6.1,4.9 6.9,4.4 7.8,4.2 L7.2,2.3 C6,2.6 4.9,3.2 4,4.1 C1.3,6.8 1.3,11.2 4,14 C5.3,15.3 7.1,16 8.9,16 C10.8,16 12.5,15.3 13.8,14 C16.5,11.3 16.5,6.9 13.8,4.1 L16,1.9 L9.7,1.2 L9.7,1.2 Z"></path>
  </symbol>
  <symbol xmlns="http://www.w3.org/2000/svg" viewBox="0 0 18 18" id="plyr-rewind">
    <polygon points="10.125 1 0 9 10.125 17 10.125 10.8285714 18 17 18 1 10.125 7.17142857"></polygon>
  </symbol>
</svg>