<svg xmlns="http://www.w3.org/2000/svg" style="display: none;">
  <symbol id="plyr-airplay">
   <svg xmlns="http://www.w3.org/2000/svg" height="36" viewBox="0 0 36 36" width="36"><g/><path d="M7 24v3h3c0-1.66-1.34-3-3-3m0-4v2c2.76 0 5 2.24 5 5h2c0-3.87-3.13-7-7-7m18-7H11v1.63c3.96 1.28 7.09 4.41 8.37 8.37H25zM7 16v2a9 9 0 0 1 9 9h2c0-6.08-4.93-11-11-11m20-7H9c-1.1 0-2 .9-2 2v3h2v-3h18v14h-7v2h7c1.1 0 2-.9 2-2V11c0-1.1-.9-2-2-2"/></svg>
  </symbol>

  <symbol id="plyr-captions-off">
   <svg viewBox="0 0 24 24" opacity="0.5" fill="none" xmlns="http://www.w3.org/2000/svg"><g stroke-width="0"/><g stroke-linecap="round" stroke-linejoin="round"/><path fill-rule="evenodd" clip-rule="evenodd" d="M2 12c0-3.771 0-5.657 1.172-6.828S6.229 4 10 4h4c3.771 0 5.657 0 6.828 1.172S22 8.229 22 12s0 5.657-1.172 6.828S17.771 20 14 20h-4c-3.771 0-5.657 0-6.828-1.172S2 15.771 2 12m4 3.25a.75.75 0 0 0 0 1.5h4a.75.75 0 0 0 0-1.5zM7.75 13a.75.75 0 0 0-.75-.75H6a.75.75 0 0 0 0 1.5h1a.75.75 0 0 0 .75-.75m3.75-.75a.75.75 0 0 1 0 1.5h-2a.75.75 0 0 1 0-1.5zm7.25.75a.75.75 0 0 0-.75-.75h-4a.75.75 0 0 0 0 1.5h4a.75.75 0 0 0 .75-.75m-6.25 2.25a.75.75 0 0 0 0 1.5H14a.75.75 0 0 0 0-1.5zm3.25.75a.75.75 0 0 1 .75-.75H18a.75.75 0 0 1 0 1.5h-1.5a.75.75 0 0 1-.75-.75" fill="#f0f6fc"/></svg>
  </symbol>

  <symbol id="plyr-captions-on">
   <svg viewBox="0 0 24 24" fill="none" xmlns="http://www.w3.org/2000/svg"><g stroke-width="0"/><g stroke-linecap="round" stroke-linejoin="round"/><path fill-rule="evenodd" clip-rule="evenodd" d="M2 12c0-3.771 0-5.657 1.172-6.828S6.229 4 10 4h4c3.771 0 5.657 0 6.828 1.172S22 8.229 22 12s0 5.657-1.172 6.828S17.771 20 14 20h-4c-3.771 0-5.657 0-6.828-1.172S2 15.771 2 12m4 3.25a.75.75 0 0 0 0 1.5h4a.75.75 0 0 0 0-1.5zM7.75 13a.75.75 0 0 0-.75-.75H6a.75.75 0 0 0 0 1.5h1a.75.75 0 0 0 .75-.75m3.75-.75a.75.75 0 0 1 0 1.5h-2a.75.75 0 0 1 0-1.5zm7.25.75a.75.75 0 0 0-.75-.75h-4a.75.75 0 0 0 0 1.5h4a.75.75 0 0 0 .75-.75m-6.25 2.25a.75.75 0 0 0 0 1.5H14a.75.75 0 0 0 0-1.5zm3.25.75a.75.75 0 0 1 .75-.75H18a.75.75 0 0 1 0 1.5h-1.5a.75.75 0 0 1-.75-.75" fill="#f0f6fc"/></svg>
  </symbol>

  <symbol id="plyr-download">
   <svg viewBox="0 0 24 24" fill="none" xmlns="http://www.w3.org/2000/svg"><g stroke-width="0"/><g stroke-linecap="round" stroke-linejoin="round"/><g fill="#f0f6fc"><path fill-rule="evenodd" clip-rule="evenodd" d="M12 1.25a.75.75 0 0 0-.75.75v10.973l-1.68-1.961a.75.75 0 1 0-1.14.976l3 3.5a.75.75 0 0 0 1.14 0l3-3.5a.75.75 0 1 0-1.14-.976l-1.68 1.96V2a.75.75 0 0 0-.75-.75"/><path d="M14.25 9v.378a2.249 2.249 0 0 1 2.458 3.586l-3 3.5a2.25 2.25 0 0 1-3.416 0l-3-3.5A2.25 2.25 0 0 1 9.75 9.378V9H8c-2.828 0-4.243 0-5.121.879C2 10.757 2 12.172 2 15v1c0 2.828 0 4.243.879 5.121C3.757 22 5.172 22 8 22h8c2.828 0 4.243 0 5.121-.879C22 20.243 22 18.828 22 16v-1c0-2.828 0-4.243-.879-5.121C20.243 9 18.828 9 16 9z"/></g></svg>
  </symbol>

  <symbol id="plyr-enter-fullscreen">
   <svg viewBox="0 0 24 24" fill="none" xmlns="http://www.w3.org/2000/svg"><g stroke-width="0"/><g stroke-linecap="round" stroke-linejoin="round"/><path d="M16.143 1.25a.75.75 0 1 0 0 1.5h4.046l-5.72 5.72a.75.75 0 0 0 1.061 1.06l5.72-5.72v4.047a.75.75 0 0 0 1.5 0V2a.75.75 0 0 0-.75-.75zm-8.286 21.5a.75.75 0 0 0 0-1.5H3.811l5.72-5.72a.75.75 0 1 0-1.061-1.06l-5.72 5.72v-4.047a.75.75 0 1 0-1.5 0V22c0 .414.336.75.75.75z" fill="#f0f6fc"/></svg>
  </symbol>

  <symbol id="plyr-exit-fullscreen">
   <svg viewBox="0 0 24 24" fill="none" xmlns="http://www.w3.org/2000/svg"><g stroke-width="0"/><g stroke-linecap="round" stroke-linejoin="round"/><path d="M20.857 9.75a.75.75 0 1 0 0-1.5h-4.046l5.72-5.72a.75.75 0 0 0-1.061-1.06l-5.72 5.72V3.142a.75.75 0 0 0-1.5 0V9c0 .414.336.75.75.75zm-17.714 4.5a.75.75 0 0 0 0 1.5h4.046l-5.72 5.72a.75.75 0 1 0 1.061 1.06l5.72-5.72v4.047a.75.75 0 1 0 1.5 0V15a.75.75 0 0 0-.75-.75z" fill="#f0f6fc"/></svg>
  </symbol>

  <symbol id="plyr-fast-forward">
   <svg viewBox="0 0 24 24" fill="none" xmlns="http://www.w3.org/2000/svg"><g stroke-width="0"/><g stroke-linecap="round" stroke-linejoin="round"/><g fill-rule="evenodd" clip-rule="evenodd" fill="#f0f6fc"><path d="M10.325 7.824a.75.75 0 0 1 .425.676v7a.75.75 0 0 1-1.5 0v-5.44l-1.281 1.026a.75.75 0 0 1-.937-1.172l2.5-2a.75.75 0 0 1 .793-.09M14.25 9.25a1 1 0 0 0-1 1v3.5a1 1 0 1 0 2 0v-3.5a1 1 0 0 0-1-1m-2.5 1a2.5 2.5 0 0 1 5 0v3.5a2.5 2.5 0 0 1-5 0z"/><path d="M12.676 1.675A.75.75 0 0 0 12 1.25q-1.104.002-2.15.215C4.945 2.461 1.25 6.798 1.25 12c0 5.937 4.813 10.75 10.75 10.75S22.75 17.937 22.75 12c0-4.41-2.655-8.197-6.45-9.855a.75.75 0 0 0-.6 1.374A9.25 9.25 0 1 1 2.75 12a9.255 9.255 0 0 1 6.5-8.834V4.5a.75.75 0 0 0 1.336.469l2-2.5a.75.75 0 0 0 .09-.794"/></g></svg>
  </symbol>

  <symbol id="plyr-logo-vimeo">
   <path d="M16,3.3 C15.9,4.9 14.8,7 12.7,9.7 C10.5,12.5 8.7,13.9 7.2,13.9 C6.3,13.9 5.5,13 4.8,11.3 C4,8.9 3.4,4 2,4 C1.9,4 1.5,4.3 0.8,4.8 L0,3.8 C0.8,3.1 3.5,0.4 4.7,0.3 C5.9,0.2 6.7,1 7,2.8 C7.3,4.8 7.8,8.9 8.8,8.9 C9.7,8.9 11.3,5.5 11.4,4.9 C11.5,4 11.1,3 9.1,3.8 C9.9,1.2 11.4,-8.8817842e-16 13.6,-8.8817842e-16 C15.3,0.1 16.1,1.2 16,3.3 Z" transform="translate(1 2)"></path>
  </symbol>

  <symbol id="plyr-logo-youtube">
   <path d="M15.8,2.8 C15.6,1.5 15,0.6 13.6,0.4 C11.4,0 8,0 8,0 C8,0 4.6,0 2.4,0.4 C1,0.6 0.3,1.5 0.2,2.8 C0,4.1 0,6 0,6 C0,6 0,7.9 0.2,9.2 C0.4,10.5 1,11.4 2.4,11.6 C4.6,12 8,12 8,12 C8,12 11.4,12 13.6,11.6 C15,11.3 15.6,10.5 15.8,9.2 C16,7.9 16,6 16,6 C16,6 16,4.1 15.8,2.8 Z M6,9 L6,3 L11,6 L6,9 Z" transform="translate(1 3)"></path>
  </symbol>

  <symbol id="plyr-muted">
   <svg viewBox="0 0 24 24" fill="none" xmlns="http://www.w3.org/2000/svg"><g stroke-width="0"/><g stroke-linecap="round" stroke-linejoin="round"/><g fill="#f0f6fc"><path fill-rule="evenodd" clip-rule="evenodd" d="M20.515 6.316a.75.75 0 0 1 .991.376c.468 1.035.994 2.768.994 5.308 0 2.192-.392 3.783-.8 4.844a7.7 7.7 0 0 1-.572 1.195 5 5 0 0 1-.289.425l-.007.01-.003.003-.002.002L20.25 18l.576.48a.75.75 0 0 1-1.156-.956l.003-.004.031-.041a3 3 0 0 0 .137-.212c.12-.199.288-.516.459-.961.342-.889.7-2.298.7-4.306 0-2.326-.48-3.849-.86-4.692a.75.75 0 0 1 .375-.992m-2.101 2.95a.75.75 0 0 1 .887.582c.11.53.199 1.24.199 2.152 0 1.11-.132 1.923-.273 2.474a5 5 0 0 1-.203.631 3 3 0 0 1-.102.228l-.01.018-.003.007-.002.003v.002s-.001.001-.657-.363l.656.364a.75.75 0 0 1-1.317-.719l.005-.01.038-.087a4 4 0 0 0 .141-.447c.11-.424.227-1.111.227-2.101a9 9 0 0 0-.168-1.848.75.75 0 0 1 .582-.886"/><path d="M21.78 3.53a.75.75 0 0 0-1.06-1.06l-4.45 4.449a11 11 0 0 0-.193-1.39c-.172-.788-.477-1.473-1.116-1.923a3 3 0 0 0-.769-.39c-.818-.28-1.631-.057-2.457.345-.814.395-1.8 1.046-3.032 1.857l-.267.176c-.447.295-.602.394-.76.464q-.257.115-.535.16c-.171.03-.354.032-.89.032h-.162c-1.217 0-2.062-.001-2.814.347A3.96 3.96 0 0 0 1.548 8.22c-.392.729-.438 1.491-.504 2.575l-.008.13C1.014 11.294 1 11.658 1 12s.014.706.036 1.074l.008.13c.066 1.084.112 1.846.504 2.575a3.96 3.96 0 0 0 1.727 1.624c.61.283 1.283.336 2.166.345L2.72 20.47a.75.75 0 1 0 1.06 1.06zM16.5 12a.75.75 0 0 0-1.255-.554l-.071.074-6 6.274A.778.778 0 0 0 9.34 19c1.039.68 1.899 1.225 2.631 1.549.743.328 1.48.489 2.222.236a3 3 0 0 0 .769-.391c.706-.497 1.005-1.28 1.167-2.18.159-.884.213-2.056.281-3.516l.003-.058a68 68 0 0 0 .088-2.64"/></g></svg>
  </symbol>

  <symbol id="plyr-pause">
   <svg viewBox="0 0 24 24" fill="none" xmlns="http://www.w3.org/2000/svg"><g stroke-width="0"/><g stroke-linecap="round" stroke-linejoin="round"/><path d="M2 6c0-1.886 0-2.828.586-3.414S4.114 2 6 2s2.828 0 3.414.586S10 4.114 10 6v12c0 1.886 0 2.828-.586 3.414S7.886 22 6 22s-2.828 0-3.414-.586S2 19.886 2 18zm12 0c0-1.886 0-2.828.586-3.414S16.114 2 18 2s2.828 0 3.414.586S22 4.114 22 6v12c0 1.886 0 2.828-.586 3.414S19.886 22 18 22s-2.828 0-3.414-.586S14 19.886 14 18z" fill="#f0f6fc"/></svg>
  </symbol>

  <symbol id="plyr-pip">
   <svg viewBox="0 0 24 24" fill="none" xmlns="http://www.w3.org/2000/svg"><g stroke-width="0"/><g stroke-linecap="round" stroke-linejoin="round"/><path fill-rule="evenodd" clip-rule="evenodd" d="M2.955 5.061C2 6.375 2 8.251 2 12s0 5.625.955 6.939a5 5 0 0 0 1.106 1.106C5.375 21 7.251 21 11 21h2c3.75 0 5.625 0 6.939-.955a5 5 0 0 0 1.106-1.106C22 17.625 22 15.749 22 12s0-5.625-.955-6.939a5 5 0 0 0-1.106-1.106C18.625 3 16.749 3 13 3h-2c-3.75 0-5.625 0-6.939.955A5 5 0 0 0 2.955 5.06m8.219 7.38C11 12.868 11 13.412 11 14.5s0 1.63.174 2.06a2.3 2.3 0 0 0 1.237 1.262c.42.178.953.178 2.018.178h1.142c1.065 0 1.598 0 2.018-.178a2.3 2.3 0 0 0 1.237-1.262c.174-.43.174-.973.174-2.06s0-1.63-.174-2.06a2.3 2.3 0 0 0-1.237-1.262C17.169 11 16.636 11 15.571 11H14.43c-1.065 0-1.598 0-2.018.178a2.3 2.3 0 0 0-1.237 1.262" fill="#f0f6fc"/></svg>
  </symbol>

  <symbol id="plyr-play">
   <svg viewBox="0 0 24 24" fill="none" xmlns="http://www.w3.org/2000/svg"><g stroke-width="0"/><g stroke-linecap="round" stroke-linejoin="round"/><path d="M21.409 9.353a2.998 2.998 0 0 1 0 5.294L8.597 21.614C6.534 22.737 4 21.277 4 18.968V5.033c0-2.31 2.534-3.769 4.597-2.648z" fill="#f0f6fc"/></svg>
  </symbol>

  <symbol id="plyr-restart">
   <svg viewBox="0 0 24 24" fill="none" xmlns="http://www.w3.org/2000/svg"><g stroke-width="0"/><g stroke-linecap="round" stroke-linejoin="round"/><path d="M18.258 3.508a.75.75 0 0 1 .463.693v4.243a.75.75 0 0 1-.75.75h-4.243a.75.75 0 0 1-.53-1.28L14.8 6.31a7.25 7.25 0 1 0 4.393 5.783.75.75 0 0 1 1.488-.187A8.75 8.75 0 1 1 15.93 5.18l1.51-1.51a.75.75 0 0 1 .817-.162" fill="#f0f6fc"/></svg>
  </symbol>

  <symbol id="plyr-rewind">
   <svg viewBox="0 0 24 24" fill="none" xmlns="http://www.w3.org/2000/svg"><g id="SVGRepo_bgCarrier" stroke-width="0"></g><g id="SVGRepo_tracerCarrier" stroke-linecap="round" stroke-linejoin="round"></g><g id="SVGRepo_iconCarrier"> <path fill-rule="evenodd" clip-rule="evenodd" d="M10.3249 7.82403C10.5848 7.94892 10.75 8.2117 10.75 8.50001V15.5C10.75 15.9142 10.4142 16.25 10 16.25C9.58581 16.25 9.25003 15.9142 9.25003 15.5V10.0605L7.96855 11.0857C7.6451 11.3444 7.17313 11.292 6.91438 10.9685C6.65562 10.6451 6.70806 10.1731 7.03151 9.91436L9.53151 7.91436C9.75663 7.73425 10.0651 7.69914 10.3249 7.82403ZM14.25 9.25001C13.6977 9.25001 13.25 9.69772 13.25 10.25V13.75C13.25 14.3023 13.6977 14.75 14.25 14.75C14.8023 14.75 15.25 14.3023 15.25 13.75V10.25C15.25 9.69772 14.8023 9.25001 14.25 9.25001ZM11.75 10.25C11.75 8.8693 12.8693 7.75001 14.25 7.75001C15.6307 7.75001 16.75 8.8693 16.75 10.25V13.75C16.75 15.1307 15.6307 16.25 14.25 16.25C12.8693 16.25 11.75 15.1307 11.75 13.75V10.25Z" fill="#f0f6fc"></path> <path fill-rule="evenodd" clip-rule="evenodd" d="M11.324 1.67511C11.4489 1.41526 11.7117 1.25 12 1.25C12.7353 1.25 13.4541 1.32394 14.1492 1.46503C19.0563 2.46112 22.75 6.79837 22.75 12C22.75 17.9371 17.9371 22.75 12 22.75C6.06294 22.75 1.25 17.9371 1.25 12C1.25 7.59065 3.90459 3.80298 7.69972 2.14482C8.07929 1.97898 8.52143 2.15224 8.68726 2.53181C8.8531 2.91137 8.67984 3.35351 8.30028 3.51935C5.03179 4.94742 2.75 8.20808 2.75 12C2.75 17.1086 6.89137 21.25 12 21.25C17.1086 21.25 21.25 17.1086 21.25 12C21.25 7.84953 18.5158 4.33622 14.75 3.16544V4.5C14.75 4.81852 14.5488 5.10229 14.2483 5.20772C13.9477 5.31315 13.6133 5.21724 13.4143 4.96852L11.4143 2.46852C11.2342 2.24339 11.1991 1.93496 11.324 1.67511Z" fill="#f0f6fc"></path> </g></svg>
  </symbol>

  <symbol id="plyr-settings">
   <svg viewBox="0 0 24 24" fill="none" xmlns="http://www.w3.org/2000/svg"><g stroke-width="0"/><g stroke-linecap="round" stroke-linejoin="round"/><path fill-rule="evenodd" clip-rule="evenodd" d="M14.279 2.152C13.909 2 13.439 2 12.5 2s-1.408 0-1.779.152a2 2 0 0 0-1.09 1.083c-.094.223-.13.484-.145.863a1.62 1.62 0 0 1-.796 1.353 1.64 1.64 0 0 1-1.579.008c-.338-.178-.583-.276-.825-.308a2.03 2.03 0 0 0-1.49.396c-.318.242-.553.646-1.022 1.453-.47.807-.704 1.21-.757 1.605-.07.526.074 1.058.4 1.479.148.192.357.353.68.555.477.297.783.803.783 1.361s-.306 1.064-.782 1.36c-.324.203-.533.364-.682.556a2 2 0 0 0-.399 1.479c.053.394.287.798.757 1.605s.704 1.21 1.022 1.453c.424.323.96.465 1.49.396.242-.032.487-.13.825-.308a1.64 1.64 0 0 1 1.58.008c.486.28.774.795.795 1.353.015.38.051.64.145.863.204.49.596.88 1.09 1.083.37.152.84.152 1.779.152s1.409 0 1.779-.152a2 2 0 0 0 1.09-1.083c.094-.223.13-.483.145-.863.02-.558.309-1.074.796-1.353a1.64 1.64 0 0 1 1.579-.008c.338.178.583.276.825.308.53.07 1.066-.073 1.49-.396.318-.242.553-.646 1.022-1.453.47-.807.704-1.21.757-1.605a2 2 0 0 0-.4-1.479c-.148-.192-.357-.353-.68-.555-.477-.297-.783-.803-.783-1.361s.306-1.064.782-1.36c.324-.203.533-.364.682-.556a2 2 0 0 0 .399-1.479c-.053-.394-.287-.798-.757-1.605s-.704-1.21-1.022-1.453a2.03 2.03 0 0 0-1.49-.396c-.242.032-.487.13-.825.308a1.64 1.64 0 0 1-1.58-.008 1.62 1.62 0 0 1-.795-1.353c-.015-.38-.051-.64-.145-.863a2 2 0 0 0-1.09-1.083M12.5 15c1.67 0 3.023-1.343 3.023-3S14.169 9 12.5 9s-3.023 1.343-3.023 3 1.354 3 3.023 3" fill="#f0f6fc"/></svg>
  </symbol>

  <symbol id="plyr-volume">
   <svg viewBox="0 0 24 24" fill="none" xmlns="http://www.w3.org/2000/svg"><g stroke-width="0"/><g stroke-linecap="round" stroke-linejoin="round"/><g fill="#f0f6fc"><path d="M2.003 11.716c.037-1.843.056-2.764.668-3.552a3 3 0 0 1 .413-.431c.752-.636 1.746-.636 3.733-.636.71 0 1.065 0 1.403-.092q.105-.03.209-.067c.33-.121.627-.33 1.22-.746 2.338-1.645 3.508-2.467 4.489-2.11.188.069.37.168.533.29.848.635.913 2.115 1.042 5.073.048 1.096.08 2.034.08 2.555s-.032 1.46-.08 2.555c-.13 2.958-.194 4.438-1.042 5.073a2.1 2.1 0 0 1-.533.29c-.982.357-2.15-.465-4.49-2.11-.592-.416-.889-.625-1.22-.746a3 3 0 0 0-.208-.067c-.338-.092-.693-.092-1.403-.092-1.987 0-2.98 0-3.733-.636a3 3 0 0 1-.413-.43c-.612-.79-.63-1.71-.668-3.552a14 14 0 0 1 0-.57"/><path fill-rule="evenodd" clip-rule="evenodd" d="M19.49 5.552a.66.66 0 0 1 .97.094l-.529.471.53-.47.002.002.003.004.007.009.079.112q.072.107.186.305c.149.264.339.652.526 1.171C21.64 8.291 22 9.851 22 12s-.36 3.71-.736 4.75c-.187.52-.377.907-.526 1.172a5 5 0 0 1-.265.417l-.007.009-.003.003-.001.002s-.001.001-.531-.47l.53.471a.66.66 0 0 1-.971.094.77.77 0 0 1-.09-1.035l.03-.041q.04-.06.125-.207a6 6 0 0 0 .422-.943c.314-.871.644-2.253.644-4.222s-.33-3.35-.644-4.222a6 6 0 0 0-.422-.942 3 3 0 0 0-.157-.253m-1.641 1.833c.333-.197.753-.07.938.286l-.603.357.603-.357.001.002.002.003.003.007.01.018.024.053q.028.063.07.17c.053.145.12.35.185.62.13.54.252 1.337.252 2.425 0 1.089-.122 1.886-.252 2.426-.065.27-.132.475-.186.619a3 3 0 0 1-.094.223l-.009.018-.003.007-.002.003v.002s-.001.001-.604-.356l.603.357c-.185.355-.605.483-.938.286-.33-.196-.45-.638-.272-.991l.004-.01.035-.085c.032-.086.08-.23.13-.438.1-.416.208-1.09.208-2.06 0-.971-.108-1.645-.208-2.06a4 4 0 0 0-.165-.524l-.004-.01a.76.76 0 0 1 .272-.991"/></g></svg>
  </symbol>

</svg>